<svg
  width="32"
  height="32"
  viewBox="0 0 32 32"
  fill="none"
  xmlns="http://www.w3.org/2000/svg"
>
  <ellipse cx="16" cy="12" rx="9" ry="7" stroke="#8a8a8a" stroke-width="1.5" />
  <path
    d="M9,17 C7,21 6,25 9,28 C10,29.5 12,29 11,27
       M13,18 C12,23 11,27 14,29 C15.5,29.8 17,29 15.5,27
       M19,18 C20,23 21,27 18,29 C16.5,29.8 15,29 16.5,27
       M23,17 C25,21 26,25 23,28 C22,29.5 20,29 21,27"
    stroke="#8a8a8a"
    stroke-width="1.5"
    stroke-linecap="round"
  />
  <circle cx="12" cy="10" r="1" fill="#2f8fff" />
  <circle cx="19" cy="9.5" r="1" fill="#2f8fff" />
  <circle cx="15.5" cy="14.5" r="1.1" fill="#2f8fff" />
</svg>
